<?xml version="1.0" encoding="utf-8"?>
<!-- Generator: Adobe Illustrator 23.0.0, SVG Export Plug-In . SVG Version: 6.00 Build 0)  -->
<svg version="1.1" id="Layer_1" xmlns="http://www.w3.org/2000/svg" xmlns:xlink="http://www.w3.org/1999/xlink" x="0px" y="0px"
	 viewBox="0 0 1280 442.28" style="enable-background:new 0 0 1280 442.28;" xml:space="preserve">
<style type="text/css">
	.st0{fill:none;stroke:#EB5757;stroke-width:5;stroke-miterlimit:10;}
	.st1{fill:none;stroke:#EB5757;stroke-width:5;stroke-linecap:round;stroke-miterlimit:10;}
	.st2{fill:#828282;}
	.st3{fill:#F2994A;}
	.st4{fill:#EB5757;}
	.st5{fill:#2072B2;}
	.st6{fill:none;stroke:#EB5757;stroke-width:3;stroke-linecap:round;stroke-miterlimit:10;}
</style>
<path class="st0" d="M-310.14,466.66c22.93,0,45.87,0,68.8,0"/>
<g>
	<line class="st1" x1="-251.43" y1="281.04" x2="-251.43" y2="362.3"/>
	<g>
		<path class="st2" d="M-239.27,290h-4.13v5.93h-1.21v-14.22h4.62c1.52,0,2.7,0.37,3.55,1.1c0.85,0.73,1.28,1.76,1.28,3.08
			c0,0.91-0.27,1.71-0.8,2.41c-0.53,0.7-1.25,1.18-2.15,1.44l3.55,6.05v0.13h-1.28L-239.27,290z M-243.41,288.99h3.68
			c1.01,0,1.82-0.29,2.43-0.86c0.61-0.57,0.92-1.32,0.92-2.23c0-1-0.32-1.78-0.96-2.34c-0.64-0.55-1.53-0.83-2.69-0.83h-3.39V288.99
			z"/>
		<path class="st2" d="M-228.07,296.12c-0.9,0-1.71-0.22-2.44-0.66s-1.29-1.06-1.69-1.85s-0.61-1.68-0.61-2.66v-0.42
			c0-1.02,0.2-1.93,0.59-2.74s0.94-1.45,1.65-1.92s1.46-0.7,2.29-0.7c1.28,0,2.3,0.44,3.05,1.31s1.13,2.07,1.13,3.59v0.65h-7.54
			v0.22c0,1.2,0.34,2.2,1.03,2.99s1.55,1.2,2.59,1.2c0.63,0,1.18-0.11,1.66-0.34s0.91-0.59,1.3-1.09l0.73,0.56
			C-225.19,295.5-226.44,296.12-228.07,296.12z M-228.29,286.16c-0.88,0-1.62,0.32-2.22,0.97s-0.97,1.51-1.1,2.6h6.34v-0.13
			c-0.03-1.02-0.32-1.84-0.87-2.48S-227.4,286.16-228.29,286.16z"/>
		<path class="st2" d="M-215.51,293.24c0-0.58-0.23-1.04-0.7-1.4s-1.17-0.63-2.1-0.83s-1.67-0.43-2.18-0.68s-0.9-0.57-1.15-0.94
			s-0.38-0.82-0.38-1.35c0-0.83,0.35-1.52,1.04-2.07s1.59-0.82,2.68-0.82c1.18,0,2.12,0.29,2.84,0.87s1.07,1.34,1.07,2.28h-1.17
			c0-0.62-0.26-1.13-0.78-1.54s-1.17-0.62-1.96-0.62c-0.77,0-1.39,0.17-1.85,0.51s-0.7,0.79-0.7,1.33c0,0.53,0.19,0.94,0.58,1.23
			s1.09,0.55,2.12,0.8s1.79,0.5,2.3,0.77s0.89,0.6,1.14,0.99s0.37,0.85,0.37,1.4c0,0.89-0.36,1.6-1.08,2.14s-1.66,0.8-2.82,0.8
			c-1.23,0-2.23-0.3-2.99-0.89s-1.15-1.35-1.15-2.26h1.17c0.05,0.68,0.33,1.22,0.86,1.6s1.23,0.57,2.1,0.57
			c0.81,0,1.47-0.18,1.97-0.54S-215.51,293.79-215.51,293.24z"/>
		<path class="st2" d="M-204.91,294.59c-0.7,1.02-1.83,1.53-3.37,1.53c-1.13,0-1.98-0.33-2.57-0.98s-0.89-1.62-0.9-2.91v-6.88h1.16
			v6.73c0,2.01,0.81,3.02,2.44,3.02c1.69,0,2.76-0.7,3.21-2.1v-7.65h1.17v10.57h-1.13L-204.91,294.59z"/>
		<path class="st2" d="M-199.66,285.36l0.04,1.72c0.39-0.64,0.88-1.12,1.46-1.44s1.24-0.48,1.95-0.48c1.67,0,2.72,0.68,3.17,2.05
			c0.38-0.66,0.88-1.16,1.51-1.52s1.33-0.53,2.09-0.53c2.27,0,3.42,1.24,3.47,3.71v7.05h-1.17v-6.96c-0.01-0.94-0.21-1.64-0.61-2.1
			s-1.05-0.68-1.96-0.68c-0.84,0.01-1.55,0.29-2.13,0.82s-0.9,1.18-0.97,1.94v6.99h-1.17v-7.05c-0.01-0.91-0.22-1.58-0.64-2.03
			s-1.07-0.67-1.94-0.67c-0.74,0-1.37,0.21-1.89,0.63s-0.92,1.04-1.17,1.87v7.25h-1.17v-10.57H-199.66z"/>
		<path class="st2" d="M-178.9,296.12c-0.9,0-1.71-0.22-2.44-0.66s-1.29-1.06-1.69-1.85s-0.61-1.68-0.61-2.66v-0.42
			c0-1.02,0.2-1.93,0.59-2.74s0.94-1.45,1.65-1.92s1.46-0.7,2.29-0.7c1.28,0,2.3,0.44,3.05,1.31s1.13,2.07,1.13,3.59v0.65h-7.54
			v0.22c0,1.2,0.34,2.2,1.03,2.99s1.55,1.2,2.59,1.2c0.63,0,1.18-0.11,1.66-0.34s0.91-0.59,1.3-1.09l0.73,0.56
			C-176.02,295.5-177.27,296.12-178.9,296.12z M-179.12,286.16c-0.88,0-1.62,0.32-2.22,0.97s-0.97,1.51-1.1,2.6h6.34v-0.13
			c-0.03-1.02-0.32-1.84-0.87-2.48S-178.23,286.16-179.12,286.16z"/>
		<path class="st2" d="M-243.39,315.14v5.79h-1.2v-14.22h4.84c1.48,0,2.65,0.38,3.5,1.13s1.28,1.79,1.28,3.12
			c0,1.33-0.41,2.37-1.24,3.09s-2.02,1.09-3.58,1.09H-243.39z M-243.39,314.12h3.64c1.17,0,2.05-0.28,2.67-0.83
			c0.61-0.55,0.92-1.33,0.92-2.32c0-0.98-0.3-1.77-0.91-2.35c-0.61-0.58-1.47-0.88-2.59-0.89h-3.72V314.12z"/>
		<path class="st2" d="M-233.19,315.49c0-1.02,0.2-1.93,0.59-2.74s0.95-1.45,1.67-1.9s1.53-0.68,2.45-0.68
			c1.41,0,2.55,0.49,3.42,1.48s1.31,2.29,1.31,3.92v0.24c0,1.02-0.2,1.94-0.59,2.76s-0.95,1.45-1.67,1.89s-1.53,0.66-2.45,0.66
			c-1.4,0-2.54-0.49-3.41-1.48s-1.31-2.29-1.31-3.92V315.49z M-232.02,315.81c0,1.26,0.33,2.3,0.98,3.11s1.51,1.22,2.57,1.22
			c1.05,0,1.91-0.41,2.56-1.22s0.98-1.88,0.98-3.21v-0.22c0-0.81-0.15-1.55-0.45-2.22s-0.72-1.19-1.26-1.56s-1.16-0.55-1.86-0.55
			c-1.04,0-1.89,0.41-2.55,1.23s-0.99,1.89-0.99,3.21V315.81z"/>
		<path class="st2" d="M-216.46,311.36c-0.25-0.05-0.51-0.07-0.79-0.07c-0.73,0-1.35,0.2-1.85,0.61s-0.86,1-1.08,1.77v7.26h-1.16
			v-10.57h1.14l0.02,1.68c0.62-1.25,1.61-1.88,2.98-1.88c0.33,0,0.58,0.04,0.77,0.13L-216.46,311.36z"/>
		<path class="st2" d="M-212.8,307.66v2.71h2.19v0.96h-2.19v7.05c0,0.59,0.11,1.02,0.32,1.31c0.21,0.29,0.56,0.43,1.06,0.43
			c0.2,0,0.51-0.03,0.95-0.1l0.05,0.95c-0.31,0.11-0.72,0.16-1.25,0.16c-0.8,0-1.38-0.23-1.75-0.7s-0.55-1.15-0.55-2.06v-7.05h-1.94
			v-0.96h1.94v-2.71H-212.8z"/>
		<path class="st2" d="M-207.35,320.93v-9.61h-1.75v-0.96h1.75v-1.28c0-1.08,0.27-1.91,0.83-2.49s1.32-0.87,2.3-0.87
			c0.44,0,0.86,0.05,1.24,0.16l-0.09,0.97c-0.33-0.08-0.68-0.12-1.06-0.12c-0.64,0-1.15,0.2-1.5,0.6s-0.54,0.97-0.54,1.71v1.31h2.52
			v0.96h-2.52v9.61H-207.35z"/>
		<path class="st2" d="M-202.21,315.49c0-1.02,0.2-1.93,0.59-2.74s0.95-1.45,1.67-1.9s1.53-0.68,2.45-0.68
			c1.41,0,2.55,0.49,3.42,1.48s1.31,2.29,1.31,3.92v0.24c0,1.02-0.2,1.94-0.59,2.76s-0.95,1.45-1.67,1.89s-1.53,0.66-2.45,0.66
			c-1.4,0-2.54-0.49-3.41-1.48s-1.31-2.29-1.31-3.92V315.49z M-201.04,315.81c0,1.26,0.33,2.3,0.98,3.11s1.51,1.22,2.57,1.22
			c1.05,0,1.91-0.41,2.56-1.22s0.98-1.88,0.98-3.21v-0.22c0-0.81-0.15-1.55-0.45-2.22s-0.72-1.19-1.26-1.56s-1.16-0.55-1.86-0.55
			c-1.04,0-1.89,0.41-2.55,1.23s-0.99,1.89-0.99,3.21V315.81z"/>
		<path class="st2" d="M-189.06,320.93h-1.17v-15h1.17V320.93z"/>
		<path class="st2" d="M-185.95,307.31c0-0.22,0.07-0.41,0.21-0.56c0.14-0.15,0.34-0.23,0.59-0.23s0.44,0.08,0.59,0.23
			c0.15,0.15,0.22,0.34,0.22,0.56s-0.07,0.4-0.22,0.55c-0.15,0.15-0.34,0.22-0.59,0.22s-0.44-0.07-0.59-0.22
			C-185.88,307.72-185.95,307.53-185.95,307.31z M-184.58,320.93h-1.17v-10.57h1.17V320.93z"/>
		<path class="st2" d="M-182.05,315.49c0-1.02,0.2-1.93,0.59-2.74s0.95-1.45,1.67-1.9s1.53-0.68,2.45-0.68
			c1.41,0,2.55,0.49,3.42,1.48s1.31,2.29,1.31,3.92v0.24c0,1.02-0.2,1.94-0.59,2.76s-0.95,1.45-1.67,1.89s-1.53,0.66-2.45,0.66
			c-1.4,0-2.54-0.49-3.41-1.48s-1.31-2.29-1.31-3.92V315.49z M-180.88,315.81c0,1.26,0.33,2.3,0.98,3.11s1.51,1.22,2.57,1.22
			c1.05,0,1.91-0.41,2.56-1.22s0.98-1.88,0.98-3.21v-0.22c0-0.81-0.15-1.55-0.45-2.22s-0.72-1.19-1.26-1.56s-1.16-0.55-1.86-0.55
			c-1.04,0-1.89,0.41-2.55,1.23s-0.99,1.89-0.99,3.21V315.81z"/>
	</g>
	<g>
		<path class="st2" d="M-281.11,362.53c0-0.35-0.14-0.63-0.42-0.84s-0.7-0.38-1.26-0.5s-1-0.26-1.31-0.41s-0.54-0.34-0.69-0.57
			s-0.23-0.49-0.23-0.81c0-0.5,0.21-0.91,0.63-1.24s0.95-0.49,1.61-0.49c0.71,0,1.27,0.17,1.7,0.52s0.64,0.81,0.64,1.37h-0.7
			c0-0.37-0.16-0.68-0.47-0.93s-0.7-0.37-1.17-0.37c-0.46,0-0.83,0.1-1.11,0.31s-0.42,0.47-0.42,0.8c0,0.32,0.12,0.56,0.35,0.74
			s0.66,0.33,1.27,0.48s1.08,0.3,1.38,0.46s0.53,0.36,0.68,0.59s0.22,0.51,0.22,0.84c0,0.54-0.22,0.96-0.65,1.28s-1,0.48-1.69,0.48
			c-0.74,0-1.34-0.18-1.8-0.54s-0.69-0.81-0.69-1.36h0.7c0.03,0.41,0.2,0.73,0.52,0.96s0.74,0.34,1.26,0.34
			c0.49,0,0.88-0.11,1.18-0.32S-281.11,362.86-281.11,362.53z"/>
		<path class="st2" d="M-276.49,363.67c0.49,0,0.9-0.14,1.23-0.41s0.51-0.63,0.54-1.07h0.67c-0.02,0.39-0.14,0.74-0.36,1.06
			s-0.52,0.57-0.89,0.75s-0.76,0.27-1.19,0.27c-0.83,0-1.49-0.29-1.98-0.87s-0.73-1.36-0.73-2.33v-0.21c0-0.63,0.11-1.18,0.33-1.66
			s0.53-0.85,0.94-1.11s0.89-0.39,1.43-0.39c0.7,0,1.27,0.21,1.72,0.62s0.69,0.96,0.72,1.63h-0.67c-0.03-0.5-0.21-0.9-0.54-1.2
			s-0.74-0.46-1.23-0.46c-0.63,0-1.12,0.23-1.47,0.69s-0.52,1.1-0.52,1.92v0.21c0,0.81,0.17,1.44,0.52,1.89
			S-277.13,363.67-276.49,363.67z"/>
		<path class="st2" d="M-269.72,358.4c-0.15-0.03-0.31-0.04-0.47-0.04c-0.44,0-0.81,0.12-1.11,0.37s-0.52,0.6-0.65,1.06v4.35h-0.7
			v-6.34h0.69l0.01,1.01c0.37-0.75,0.97-1.13,1.79-1.13c0.2,0,0.35,0.03,0.46,0.08L-269.72,358.4z"/>
		<path class="st2" d="M-269,360.88c0-0.61,0.12-1.16,0.35-1.65s0.57-0.87,1-1.14s0.92-0.41,1.47-0.41c0.84,0,1.53,0.3,2.05,0.89
			s0.79,1.38,0.79,2.35v0.15c0,0.61-0.12,1.17-0.35,1.66s-0.57,0.87-1,1.13s-0.92,0.4-1.47,0.4c-0.84,0-1.52-0.3-2.05-0.89
			S-269,362-269,361.02V360.88z M-268.3,361.08c0,0.76,0.2,1.38,0.59,1.87s0.91,0.73,1.54,0.73c0.63,0,1.15-0.24,1.54-0.73
			s0.59-1.13,0.59-1.92v-0.13c0-0.48-0.09-0.93-0.27-1.33s-0.43-0.71-0.76-0.93s-0.7-0.33-1.11-0.33c-0.63,0-1.13,0.25-1.53,0.74
			s-0.59,1.13-0.59,1.92V361.08z"/>
		<path class="st2" d="M-261.11,364.15h-0.7v-9h0.7V364.15z"/>
		<path class="st2" d="M-258.42,364.15h-0.7v-9h0.7V364.15z"/>
	</g>
</g>
<g>
	<g>
		<path class="st3" d="M356.74,124.99c-1.53,0-2.9-0.36-4.12-1.09c-1.21-0.73-2.17-1.72-2.88-2.97c-0.71-1.25-1.06-2.67-1.06-4.24
			c0-1.59,0.36-3.01,1.09-4.27s1.72-2.24,2.97-2.97c1.25-0.73,2.67-1.09,4.24-1.09s2.98,0.36,4.22,1.09
			c1.24,0.73,2.23,1.72,2.95,2.97c0.73,1.25,1.1,2.68,1.12,4.27l-0.92,0.72c0,1.43-0.33,2.72-1,3.86c-0.67,1.14-1.57,2.05-2.71,2.71
			C359.49,124.66,358.19,124.99,356.74,124.99z M356.98,122.9c1.15,0,2.18-0.27,3.09-0.81c0.9-0.54,1.62-1.28,2.15-2.22
			c0.53-0.94,0.79-2,0.79-3.18c0-1.19-0.26-2.26-0.79-3.19c-0.53-0.94-1.24-1.68-2.15-2.22c-0.91-0.55-1.93-0.82-3.09-0.82
			c-1.13,0-2.16,0.27-3.07,0.82c-0.92,0.55-1.64,1.29-2.18,2.22s-0.81,2-0.81,3.19c0,1.17,0.27,2.23,0.81,3.18
			c0.54,0.94,1.26,1.69,2.18,2.22C354.82,122.63,355.84,122.9,356.98,122.9z M364.11,124.84c-0.34,0-0.62-0.1-0.84-0.31
			c-0.22-0.21-0.33-0.48-0.33-0.82v-5.1l0.57-2.36l1.76,0.45v7.01c0,0.34-0.11,0.61-0.33,0.82
			C364.72,124.74,364.44,124.84,364.11,124.84z"/>
		<path class="st3" d="M370.88,124.84c-0.36,0-0.64-0.1-0.84-0.3c-0.2-0.2-0.3-0.48-0.3-0.84v-14.05c0-0.36,0.1-0.64,0.3-0.84
			c0.2-0.2,0.48-0.3,0.84-0.3c0.36,0,0.64,0.1,0.83,0.3c0.2,0.2,0.3,0.48,0.3,0.84v14.05c0,0.36-0.1,0.64-0.3,0.84
			C371.52,124.74,371.24,124.84,370.88,124.84z M370.7,114.79c0.06-1.23,0.38-2.34,0.97-3.31c0.59-0.97,1.35-1.74,2.3-2.3
			c0.94-0.56,1.99-0.84,3.15-0.84c0.91,0,1.62,0.13,2.12,0.39c0.5,0.26,0.69,0.64,0.57,1.13c-0.08,0.3-0.21,0.5-0.4,0.6
			c-0.19,0.1-0.42,0.14-0.69,0.12c-0.27-0.02-0.57-0.04-0.91-0.06c-1.11-0.1-2.1,0.01-2.97,0.34s-1.55,0.83-2.06,1.51
			c-0.51,0.68-0.76,1.48-0.76,2.42H370.7z"/>
		<path class="st3" d="M390.69,124.99c-1.57,0-2.97-0.36-4.19-1.09c-1.22-0.73-2.19-1.72-2.89-2.97c-0.71-1.25-1.06-2.67-1.06-4.24
			c0-1.59,0.34-3.01,1.01-4.27s1.6-2.24,2.77-2.97c1.17-0.73,2.53-1.09,4.06-1.09c1.21,0,2.33,0.24,3.36,0.72
			c1.02,0.48,1.92,1.19,2.7,2.15c0.22,0.24,0.3,0.49,0.24,0.76s-0.23,0.5-0.51,0.7c-0.22,0.16-0.46,0.21-0.73,0.16
			c-0.27-0.05-0.5-0.19-0.7-0.43c-1.15-1.31-2.61-1.97-4.36-1.97c-1.11,0-2.09,0.27-2.94,0.81c-0.85,0.54-1.5,1.27-1.97,2.21
			c-0.47,0.94-0.7,2.01-0.7,3.22c0,1.19,0.25,2.26,0.75,3.19c0.5,0.94,1.19,1.67,2.09,2.21s1.92,0.81,3.07,0.81
			c0.78,0,1.49-0.1,2.13-0.31s1.22-0.53,1.72-0.97c0.24-0.2,0.49-0.31,0.75-0.33c0.26-0.02,0.5,0.06,0.72,0.24
			c0.24,0.22,0.37,0.47,0.4,0.75s-0.06,0.52-0.28,0.72C394.67,124.32,392.86,124.99,390.69,124.99z"/>
		<path class="st3" d="M402.35,118.19c-0.36,0-0.64-0.11-0.85-0.33c-0.21-0.22-0.31-0.5-0.31-0.84V102.7c0-0.36,0.1-0.64,0.31-0.85
			c0.21-0.21,0.49-0.31,0.85-0.31c0.34,0,0.61,0.1,0.82,0.31c0.21,0.21,0.31,0.49,0.31,0.85v14.32c0,0.34-0.1,0.62-0.31,0.84
			C402.96,118.08,402.69,118.19,402.35,118.19z M402.35,124.84c-0.36,0-0.64-0.1-0.85-0.31c-0.21-0.21-0.31-0.48-0.31-0.82v-14.02
			c0-0.36,0.1-0.64,0.31-0.85c0.21-0.21,0.49-0.31,0.85-0.31c0.34,0,0.61,0.1,0.82,0.31c0.21,0.21,0.31,0.49,0.31,0.85v14.02
			c0,0.34-0.1,0.61-0.31,0.82C402.96,124.74,402.69,124.84,402.35,124.84z M415.18,124.84c-0.34,0-0.62-0.11-0.84-0.33
			c-0.22-0.22-0.33-0.49-0.33-0.81v-7.76c0-1.23-0.23-2.25-0.7-3.04s-1.1-1.39-1.91-1.79s-1.72-0.6-2.73-0.6
			c-0.98,0-1.85,0.19-2.64,0.57s-1.41,0.9-1.86,1.55c-0.46,0.66-0.69,1.4-0.69,2.24h-1.64c0.04-1.25,0.38-2.37,1.01-3.36
			c0.64-0.98,1.48-1.76,2.54-2.33c1.05-0.57,2.23-0.85,3.52-0.85c1.41,0,2.67,0.29,3.79,0.88c1.11,0.59,1.99,1.45,2.64,2.58
			c0.65,1.13,0.97,2.52,0.97,4.15v7.76c0,0.32-0.11,0.59-0.33,0.81C415.77,124.73,415.5,124.84,415.18,124.84z"/>
		<path class="st3" d="M423,105.42c-0.44,0-0.82-0.16-1.13-0.48c-0.32-0.32-0.48-0.71-0.48-1.16c0-0.5,0.16-0.89,0.49-1.18
			c0.33-0.29,0.71-0.43,1.15-0.43c0.42,0,0.79,0.14,1.12,0.43c0.33,0.29,0.49,0.68,0.49,1.18c0,0.46-0.16,0.85-0.48,1.16
			C423.84,105.26,423.45,105.42,423,105.42z M423.03,124.84c-0.36,0-0.64-0.1-0.85-0.31c-0.21-0.21-0.31-0.49-0.31-0.85v-13.99
			c0-0.36,0.1-0.64,0.31-0.85c0.21-0.21,0.49-0.31,0.85-0.31c0.34,0,0.61,0.1,0.82,0.31c0.21,0.21,0.31,0.49,0.31,0.85v13.99
			c0,0.36-0.1,0.64-0.31,0.85C423.64,124.74,423.36,124.84,423.03,124.84z"/>
		<path class="st3" d="M428.96,111.12c-0.3,0-0.55-0.09-0.75-0.28c-0.2-0.19-0.3-0.42-0.3-0.7c0-0.3,0.1-0.54,0.3-0.73
			c0.2-0.19,0.45-0.28,0.75-0.28h7.61c0.3,0,0.55,0.09,0.75,0.28c0.2,0.19,0.3,0.43,0.3,0.73c0,0.28-0.1,0.51-0.3,0.7
			c-0.2,0.19-0.45,0.28-0.75,0.28H428.96z M436.39,124.84c-1.05,0-1.99-0.25-2.82-0.75c-0.83-0.5-1.48-1.18-1.95-2.04
			c-0.48-0.87-0.72-1.85-0.72-2.97v-14.59c0-0.34,0.1-0.62,0.31-0.84c0.21-0.22,0.48-0.33,0.82-0.33c0.34,0,0.62,0.11,0.83,0.33
			c0.22,0.22,0.33,0.5,0.33,0.84v14.59c0,1.01,0.3,1.85,0.9,2.49c0.6,0.65,1.36,0.97,2.3,0.97h0.81c0.32,0,0.58,0.11,0.78,0.33
			c0.2,0.22,0.3,0.5,0.3,0.84c0,0.34-0.12,0.61-0.36,0.82c-0.24,0.21-0.54,0.31-0.9,0.31H436.39z"/>
		<path class="st3" d="M449.4,124.99c-1.61,0-3.04-0.35-4.28-1.06c-1.24-0.71-2.22-1.69-2.92-2.94c-0.71-1.25-1.06-2.69-1.06-4.3
			c0-1.63,0.33-3.07,1-4.31c0.67-1.24,1.59-2.22,2.76-2.94c1.17-0.72,2.53-1.07,4.06-1.07c1.51,0,2.83,0.34,3.95,1.03
			c1.12,0.69,1.99,1.64,2.61,2.85c0.62,1.21,0.92,2.6,0.92,4.15c0,0.32-0.1,0.57-0.3,0.76c-0.2,0.19-0.46,0.28-0.78,0.28h-12.68
			v-1.91h12.92l-1.28,0.92c0.02-1.15-0.19-2.19-0.63-3.1c-0.44-0.91-1.06-1.63-1.86-2.15c-0.81-0.52-1.77-0.78-2.88-0.78
			c-1.13,0-2.13,0.27-2.98,0.81c-0.86,0.54-1.52,1.28-1.98,2.22c-0.47,0.94-0.7,2.02-0.7,3.24c0,1.21,0.26,2.29,0.79,3.22
			c0.53,0.94,1.25,1.67,2.16,2.21c0.91,0.54,1.97,0.81,3.16,0.81c0.72,0,1.44-0.12,2.16-0.37c0.73-0.25,1.31-0.56,1.75-0.94
			c0.22-0.18,0.47-0.27,0.75-0.28c0.28-0.01,0.52,0.06,0.72,0.22c0.26,0.24,0.39,0.5,0.4,0.78c0.01,0.28-0.1,0.52-0.34,0.72
			c-0.66,0.56-1.49,1.02-2.51,1.39C451.31,124.81,450.33,124.99,449.4,124.99z"/>
		<path class="st3" d="M467.6,124.99c-1.57,0-2.97-0.36-4.19-1.09c-1.22-0.73-2.19-1.72-2.89-2.97c-0.71-1.25-1.06-2.67-1.06-4.24
			c0-1.59,0.34-3.01,1.01-4.27s1.6-2.24,2.77-2.97c1.17-0.73,2.53-1.09,4.06-1.09c1.21,0,2.33,0.24,3.36,0.72
			c1.02,0.48,1.92,1.19,2.7,2.15c0.22,0.24,0.3,0.49,0.24,0.76s-0.23,0.5-0.51,0.7c-0.22,0.16-0.46,0.21-0.73,0.16
			c-0.27-0.05-0.5-0.19-0.7-0.43c-1.15-1.31-2.61-1.97-4.36-1.97c-1.11,0-2.09,0.27-2.94,0.81c-0.85,0.54-1.5,1.27-1.97,2.21
			c-0.47,0.94-0.7,2.01-0.7,3.22c0,1.19,0.25,2.26,0.75,3.19c0.5,0.94,1.19,1.67,2.09,2.21s1.92,0.81,3.07,0.81
			c0.78,0,1.49-0.1,2.13-0.31s1.22-0.53,1.72-0.97c0.24-0.2,0.49-0.31,0.75-0.33c0.26-0.02,0.5,0.06,0.72,0.24
			c0.24,0.22,0.37,0.47,0.4,0.75s-0.06,0.52-0.28,0.72C471.57,124.32,469.76,124.99,467.6,124.99z"/>
		<path class="st3" d="M477.05,111.12c-0.3,0-0.55-0.09-0.75-0.28c-0.2-0.19-0.3-0.42-0.3-0.7c0-0.3,0.1-0.54,0.3-0.73
			c0.2-0.19,0.45-0.28,0.75-0.28h7.61c0.3,0,0.55,0.09,0.75,0.28c0.2,0.19,0.3,0.43,0.3,0.73c0,0.28-0.1,0.51-0.3,0.7
			c-0.2,0.19-0.45,0.28-0.75,0.28H477.05z M484.48,124.84c-1.05,0-1.99-0.25-2.82-0.75c-0.83-0.5-1.48-1.18-1.95-2.04
			c-0.48-0.87-0.72-1.85-0.72-2.97v-14.59c0-0.34,0.1-0.62,0.31-0.84c0.21-0.22,0.48-0.33,0.82-0.33c0.34,0,0.62,0.11,0.83,0.33
			c0.22,0.22,0.33,0.5,0.33,0.84v14.59c0,1.01,0.3,1.85,0.9,2.49c0.6,0.65,1.36,0.97,2.3,0.97h0.81c0.32,0,0.58,0.11,0.78,0.33
			c0.2,0.22,0.3,0.5,0.3,0.84c0,0.34-0.12,0.61-0.36,0.82c-0.24,0.21-0.54,0.31-0.9,0.31H484.48z"/>
		<path class="st4" d="M514.67,125.02c-1.41,0-2.67-0.29-3.79-0.88c-1.11-0.59-1.99-1.45-2.64-2.58c-0.65-1.13-0.97-2.52-0.97-4.15
			v-7.76c0-0.32,0.11-0.59,0.33-0.81c0.22-0.22,0.49-0.33,0.81-0.33c0.34,0,0.62,0.11,0.83,0.33c0.22,0.22,0.33,0.49,0.33,0.81v7.76
			c0,1.23,0.23,2.25,0.7,3.04s1.1,1.39,1.91,1.79c0.81,0.4,1.72,0.6,2.73,0.6c0.97,0,1.85-0.19,2.64-0.57s1.41-0.9,1.86-1.55
			c0.46-0.66,0.69-1.4,0.69-2.24h1.64c-0.06,1.25-0.4,2.37-1.03,3.36c-0.63,0.98-1.47,1.76-2.52,2.33
			C517.14,124.74,515.97,125.02,514.67,125.02z M521.24,124.84c-0.34,0-0.61-0.1-0.82-0.31c-0.21-0.21-0.31-0.49-0.31-0.85v-14.02
			c0-0.34,0.1-0.61,0.31-0.82c0.21-0.21,0.48-0.31,0.82-0.31c0.34,0,0.62,0.1,0.84,0.31c0.22,0.21,0.33,0.48,0.33,0.82v14.02
			c0,0.36-0.11,0.64-0.33,0.85C521.85,124.74,521.57,124.84,521.24,124.84z"/>
		<path class="st4" d="M528.9,124.84c-0.36,0-0.64-0.1-0.84-0.3c-0.2-0.2-0.3-0.48-0.3-0.84v-14.05c0-0.36,0.1-0.64,0.3-0.84
			c0.2-0.2,0.48-0.3,0.84-0.3c0.36,0,0.64,0.1,0.83,0.3c0.2,0.2,0.3,0.48,0.3,0.84v14.05c0,0.36-0.1,0.64-0.3,0.84
			C529.54,124.74,529.26,124.84,528.9,124.84z M528.72,114.79c0.06-1.23,0.38-2.34,0.97-3.31c0.59-0.97,1.35-1.74,2.3-2.3
			c0.94-0.56,1.99-0.84,3.15-0.84c0.91,0,1.62,0.13,2.12,0.39c0.5,0.26,0.69,0.64,0.57,1.13c-0.08,0.3-0.21,0.5-0.4,0.6
			c-0.19,0.1-0.42,0.14-0.69,0.12c-0.27-0.02-0.57-0.04-0.91-0.06c-1.11-0.1-2.1,0.01-2.97,0.34s-1.55,0.83-2.06,1.51
			c-0.51,0.68-0.76,1.48-0.76,2.42H528.72z"/>
		<path class="st4" d="M549.7,124.99c-1.55,0-2.95-0.36-4.19-1.07c-1.24-0.72-2.23-1.7-2.95-2.94c-0.73-1.24-1.1-2.64-1.12-4.19
			V102.7c0-0.36,0.1-0.64,0.31-0.85c0.21-0.21,0.49-0.31,0.85-0.31c0.34,0,0.61,0.1,0.82,0.31c0.21,0.21,0.31,0.49,0.31,0.85v8.77
			c0.66-0.93,1.53-1.69,2.61-2.25c1.08-0.57,2.29-0.85,3.62-0.85c1.53,0,2.9,0.36,4.12,1.09c1.21,0.73,2.17,1.72,2.88,2.97
			c0.71,1.25,1.06,2.67,1.06,4.24c0,1.59-0.36,3.01-1.09,4.27c-0.73,1.25-1.72,2.24-2.97,2.97
			C552.71,124.63,551.29,124.99,549.7,124.99z M549.7,122.9c1.15,0,2.19-0.27,3.1-0.82c0.91-0.55,1.64-1.29,2.16-2.22
			c0.53-0.94,0.79-2,0.79-3.19c0-1.17-0.26-2.23-0.79-3.18c-0.53-0.94-1.25-1.69-2.16-2.22c-0.92-0.54-1.95-0.81-3.1-0.81
			c-1.13,0-2.16,0.27-3.07,0.81c-0.92,0.54-1.63,1.28-2.15,2.22c-0.52,0.94-0.78,2-0.78,3.18c0,1.19,0.26,2.26,0.78,3.19
			c0.52,0.94,1.23,1.68,2.15,2.22C547.54,122.63,548.56,122.9,549.7,122.9z"/>
		<path class="st4" d="M569.71,124.99c-1.53,0-2.9-0.36-4.12-1.09c-1.21-0.73-2.17-1.72-2.88-2.97c-0.71-1.25-1.06-2.67-1.06-4.24
			c0-1.59,0.36-3.01,1.09-4.27s1.72-2.24,2.97-2.97c1.25-0.73,2.67-1.09,4.24-1.09s2.98,0.36,4.22,1.09
			c1.24,0.73,2.23,1.72,2.95,2.97c0.73,1.25,1.1,2.68,1.12,4.27l-0.92,0.72c0,1.43-0.33,2.72-1,3.86c-0.67,1.14-1.57,2.05-2.71,2.71
			C572.46,124.66,571.17,124.99,569.71,124.99z M569.95,122.9c1.15,0,2.18-0.27,3.09-0.81c0.9-0.54,1.62-1.28,2.15-2.22
			c0.53-0.94,0.79-2,0.79-3.18c0-1.19-0.26-2.26-0.79-3.19c-0.53-0.94-1.24-1.68-2.15-2.22c-0.91-0.55-1.93-0.82-3.09-0.82
			c-1.13,0-2.16,0.27-3.07,0.82c-0.92,0.55-1.64,1.29-2.18,2.22s-0.81,2-0.81,3.19c0,1.17,0.27,2.23,0.81,3.18
			c0.54,0.94,1.26,1.69,2.18,2.22C567.79,122.63,568.82,122.9,569.95,122.9z M577.08,124.84c-0.34,0-0.62-0.1-0.84-0.31
			c-0.22-0.21-0.33-0.48-0.33-0.82v-5.1l0.57-2.36l1.76,0.45v7.01c0,0.34-0.11,0.61-0.33,0.82
			C577.7,124.74,577.42,124.84,577.08,124.84z"/>
		<path class="st4" d="M583.88,124.84c-0.36,0-0.64-0.1-0.85-0.31c-0.21-0.21-0.31-0.48-0.31-0.82v-14.02c0-0.36,0.1-0.64,0.31-0.85
			c0.21-0.21,0.49-0.31,0.85-0.31c0.34,0,0.61,0.1,0.82,0.31c0.21,0.21,0.31,0.49,0.31,0.85v14.02c0,0.34-0.1,0.61-0.31,0.82
			C584.5,124.74,584.22,124.84,583.88,124.84z M596.71,124.84c-0.34,0-0.62-0.11-0.84-0.33c-0.22-0.22-0.33-0.49-0.33-0.81v-7.76
			c0-1.23-0.23-2.25-0.7-3.04s-1.1-1.39-1.91-1.79s-1.72-0.6-2.73-0.6c-0.98,0-1.85,0.19-2.64,0.57s-1.41,0.9-1.86,1.55
			c-0.46,0.66-0.69,1.4-0.69,2.24h-1.64c0.04-1.25,0.38-2.37,1.01-3.36c0.64-0.98,1.48-1.76,2.54-2.33
			c1.05-0.57,2.23-0.85,3.52-0.85c1.41,0,2.67,0.29,3.79,0.88c1.11,0.59,1.99,1.45,2.64,2.58c0.65,1.13,0.97,2.52,0.97,4.15v7.76
			c0,0.32-0.11,0.59-0.33,0.81C597.3,124.73,597.03,124.84,596.71,124.84z"/>
		<path class="st4" d="M619.09,124.99c-1.57,0-2.98-0.36-4.24-1.09c-1.25-0.73-2.24-1.72-2.97-2.97s-1.09-2.67-1.09-4.27
			c0-1.57,0.35-2.98,1.06-4.24c0.71-1.25,1.67-2.24,2.88-2.97c1.21-0.73,2.59-1.09,4.12-1.09c1.33,0,2.54,0.28,3.61,0.85
			c1.07,0.57,1.94,1.32,2.6,2.25v-8.77c0-0.36,0.11-0.64,0.33-0.85c0.22-0.21,0.5-0.31,0.84-0.31c0.34,0,0.62,0.1,0.84,0.31
			c0.22,0.21,0.33,0.49,0.33,0.85v14.08c-0.04,1.55-0.42,2.95-1.15,4.19c-0.73,1.24-1.71,2.22-2.95,2.94
			C622.04,124.63,620.64,124.99,619.09,124.99z M619.09,122.9c1.15,0,2.18-0.27,3.09-0.82c0.9-0.55,1.62-1.29,2.15-2.22
			c0.53-0.94,0.79-2,0.79-3.19c0-1.17-0.26-2.23-0.79-3.18c-0.53-0.94-1.24-1.69-2.15-2.22c-0.91-0.54-1.93-0.81-3.09-0.81
			c-1.13,0-2.16,0.27-3.07,0.81c-0.92,0.54-1.64,1.28-2.18,2.22c-0.54,0.94-0.81,2-0.81,3.18c0,1.19,0.27,2.26,0.81,3.19
			s1.26,1.68,2.18,2.22C616.93,122.63,617.95,122.9,619.09,122.9z"/>
		<path class="st4" d="M640.15,124.99c-1.61,0-3.04-0.35-4.28-1.06c-1.24-0.71-2.22-1.69-2.92-2.94c-0.71-1.25-1.06-2.69-1.06-4.3
			c0-1.63,0.33-3.07,1-4.31c0.67-1.24,1.59-2.22,2.76-2.94c1.17-0.72,2.53-1.07,4.06-1.07c1.51,0,2.83,0.34,3.95,1.03
			c1.12,0.69,1.99,1.64,2.61,2.85c0.62,1.21,0.92,2.6,0.92,4.15c0,0.32-0.1,0.57-0.3,0.76c-0.2,0.19-0.46,0.28-0.78,0.28h-12.68
			v-1.91h12.92l-1.28,0.92c0.02-1.15-0.19-2.19-0.63-3.1c-0.44-0.91-1.06-1.63-1.86-2.15c-0.81-0.52-1.77-0.78-2.88-0.78
			c-1.13,0-2.13,0.27-2.98,0.81c-0.86,0.54-1.52,1.28-1.98,2.22c-0.47,0.94-0.7,2.02-0.7,3.24c0,1.21,0.26,2.29,0.79,3.22
			c0.53,0.94,1.25,1.67,2.16,2.21c0.91,0.54,1.97,0.81,3.16,0.81c0.72,0,1.44-0.12,2.16-0.37c0.73-0.25,1.31-0.56,1.75-0.94
			c0.22-0.18,0.47-0.27,0.75-0.28c0.28-0.01,0.52,0.06,0.72,0.22c0.26,0.24,0.39,0.5,0.4,0.78c0.01,0.28-0.1,0.52-0.34,0.72
			c-0.66,0.56-1.49,1.02-2.51,1.39C642.06,124.81,641.08,124.99,640.15,124.99z"/>
		<path class="st4" d="M656.77,124.99c-1.17,0-2.34-0.2-3.49-0.6s-2.09-0.99-2.8-1.79c-0.22-0.24-0.31-0.51-0.27-0.81
			c0.04-0.3,0.19-0.56,0.45-0.78c0.28-0.2,0.57-0.28,0.87-0.24c0.3,0.04,0.55,0.17,0.75,0.39c0.48,0.56,1.11,0.98,1.89,1.28
			c0.79,0.3,1.66,0.45,2.61,0.45c1.47,0,2.54-0.25,3.19-0.76c0.66-0.51,1-1.12,1.01-1.83c0-0.72-0.34-1.31-1.01-1.77
			c-0.68-0.47-1.79-0.83-3.34-1.09c-2.01-0.32-3.48-0.88-4.42-1.67c-0.94-0.8-1.4-1.74-1.4-2.83c0-1.01,0.27-1.86,0.81-2.54
			c0.54-0.68,1.25-1.18,2.15-1.52c0.9-0.34,1.88-0.51,2.95-0.51c1.33,0,2.48,0.23,3.45,0.69s1.75,1.07,2.34,1.85
			c0.2,0.26,0.28,0.53,0.24,0.81c-0.04,0.28-0.2,0.51-0.48,0.69c-0.24,0.14-0.51,0.18-0.82,0.13c-0.31-0.05-0.57-0.19-0.79-0.43
			c-0.5-0.58-1.07-1-1.73-1.27s-1.41-0.4-2.27-0.4c-1.09,0-1.97,0.22-2.63,0.67c-0.66,0.45-0.98,1.01-0.98,1.69
			c0,0.46,0.12,0.86,0.37,1.19c0.25,0.34,0.68,0.64,1.28,0.9c0.61,0.26,1.46,0.48,2.55,0.66c1.49,0.24,2.67,0.59,3.54,1.06
			c0.87,0.47,1.48,1.01,1.85,1.64c0.37,0.63,0.55,1.31,0.55,2.04c0,0.94-0.27,1.76-0.82,2.46c-0.55,0.71-1.3,1.26-2.27,1.66
			C659.13,124.79,658.02,124.99,656.77,124.99z"/>
		<path class="st4" d="M668.76,105.42c-0.44,0-0.82-0.16-1.13-0.48c-0.32-0.32-0.48-0.71-0.48-1.16c0-0.5,0.16-0.89,0.49-1.18
			c0.33-0.29,0.71-0.43,1.15-0.43c0.42,0,0.79,0.14,1.12,0.43c0.33,0.29,0.49,0.68,0.49,1.18c0,0.46-0.16,0.85-0.48,1.16
			C669.6,105.26,669.22,105.42,668.76,105.42z M668.79,124.84c-0.36,0-0.64-0.1-0.85-0.31c-0.21-0.21-0.31-0.49-0.31-0.85v-13.99
			c0-0.36,0.1-0.64,0.31-0.85c0.21-0.21,0.49-0.31,0.85-0.31c0.34,0,0.61,0.1,0.82,0.31c0.21,0.21,0.31,0.49,0.31,0.85v13.99
			c0,0.36-0.1,0.64-0.31,0.85C669.4,124.74,669.13,124.84,668.79,124.84z"/>
		<path class="st4" d="M682.96,124.99c-1.57,0-2.96-0.35-4.18-1.06c-1.21-0.71-2.16-1.69-2.85-2.94c-0.69-1.25-1.03-2.69-1.03-4.3
			c0-1.63,0.36-3.07,1.07-4.33c0.72-1.25,1.7-2.23,2.95-2.94s2.67-1.06,4.27-1.06c1.61,0,3.04,0.35,4.28,1.06s2.22,1.69,2.92,2.94
			s1.07,2.7,1.09,4.33l-1.34,0.72c0,1.47-0.31,2.78-0.92,3.92c-0.62,1.14-1.47,2.04-2.55,2.69
			C685.59,124.67,684.35,124.99,682.96,124.99z M683.26,131.28c-1.57,0-2.95-0.29-4.15-0.88c-1.19-0.59-2.18-1.39-2.95-2.4
			c-0.22-0.24-0.31-0.5-0.28-0.78c0.03-0.28,0.17-0.51,0.43-0.69c0.26-0.18,0.55-0.24,0.87-0.18c0.32,0.06,0.57,0.21,0.75,0.45
			c0.58,0.72,1.32,1.29,2.22,1.73s1.95,0.66,3.15,0.66c1.11,0,2.12-0.27,3.01-0.81c0.89-0.54,1.61-1.29,2.13-2.27
			c0.53-0.97,0.79-2.12,0.79-3.43v-4.53l0.87-1.73l1.4,0.27v6.09c0,1.61-0.36,3.06-1.07,4.34c-0.72,1.28-1.69,2.3-2.92,3.04
			C686.26,130.91,684.85,131.28,683.26,131.28z M683.2,122.9c1.17,0,2.21-0.26,3.12-0.79c0.9-0.53,1.62-1.26,2.13-2.19
			c0.52-0.93,0.78-2.01,0.78-3.22c0-1.21-0.26-2.29-0.78-3.24c-0.52-0.94-1.23-1.68-2.13-2.21c-0.91-0.53-1.94-0.79-3.12-0.79
			c-1.17,0-2.22,0.26-3.13,0.79c-0.92,0.53-1.63,1.26-2.15,2.21c-0.52,0.94-0.78,2.02-0.78,3.24c0,1.21,0.26,2.29,0.78,3.22
			c0.52,0.94,1.23,1.67,2.15,2.19C680.98,122.64,682.02,122.9,683.2,122.9z"/>
		<path class="st4" d="M697.13,124.84c-0.36,0-0.64-0.1-0.85-0.31c-0.21-0.21-0.31-0.48-0.31-0.82v-14.02c0-0.36,0.1-0.64,0.31-0.85
			c0.21-0.21,0.49-0.31,0.85-0.31c0.34,0,0.61,0.1,0.82,0.31c0.21,0.21,0.31,0.49,0.31,0.85v14.02c0,0.34-0.1,0.61-0.31,0.82
			C697.74,124.74,697.47,124.84,697.13,124.84z M709.96,124.84c-0.34,0-0.62-0.11-0.84-0.33c-0.22-0.22-0.33-0.49-0.33-0.81v-7.76
			c0-1.23-0.23-2.25-0.7-3.04c-0.47-0.8-1.1-1.39-1.91-1.79s-1.71-0.6-2.73-0.6c-0.97,0-1.85,0.19-2.64,0.57
			c-0.79,0.38-1.41,0.9-1.86,1.55c-0.46,0.66-0.69,1.4-0.69,2.24h-1.64c0.04-1.25,0.38-2.37,1.01-3.36
			c0.64-0.98,1.48-1.76,2.54-2.33c1.05-0.57,2.23-0.85,3.52-0.85c1.41,0,2.67,0.29,3.79,0.88c1.11,0.59,1.99,1.45,2.64,2.58
			c0.65,1.13,0.97,2.52,0.97,4.15v7.76c0,0.32-0.11,0.59-0.33,0.81C710.54,124.73,710.28,124.84,709.96,124.84z"/>
		<path class="st4" d="M723.56,124.99c-1.61,0-3.04-0.35-4.28-1.06c-1.24-0.71-2.22-1.69-2.92-2.94s-1.06-2.69-1.06-4.3
			c0-1.63,0.33-3.07,1-4.31c0.67-1.24,1.59-2.22,2.76-2.94c1.17-0.72,2.53-1.07,4.06-1.07c1.51,0,2.83,0.34,3.95,1.03
			c1.12,0.69,1.99,1.64,2.61,2.85c0.62,1.21,0.92,2.6,0.92,4.15c0,0.32-0.1,0.57-0.3,0.76c-0.2,0.19-0.46,0.28-0.78,0.28h-12.68
			v-1.91h12.92l-1.28,0.92c0.02-1.15-0.19-2.19-0.63-3.1c-0.44-0.91-1.06-1.63-1.86-2.15c-0.81-0.52-1.77-0.78-2.88-0.78
			c-1.13,0-2.13,0.27-2.98,0.81c-0.86,0.54-1.52,1.28-1.98,2.22c-0.47,0.94-0.7,2.02-0.7,3.24c0,1.21,0.26,2.29,0.79,3.22
			c0.53,0.94,1.25,1.67,2.16,2.21c0.91,0.54,1.97,0.81,3.16,0.81c0.72,0,1.44-0.12,2.16-0.37c0.73-0.25,1.31-0.56,1.75-0.94
			c0.22-0.18,0.47-0.27,0.75-0.28c0.28-0.01,0.52,0.06,0.72,0.22c0.26,0.24,0.39,0.5,0.4,0.78c0.01,0.28-0.1,0.52-0.34,0.72
			c-0.66,0.56-1.49,1.02-2.51,1.39C725.47,124.81,724.5,124.99,723.56,124.99z"/>
		<path class="st4" d="M735.61,124.84c-0.36,0-0.64-0.1-0.83-0.3c-0.2-0.2-0.3-0.48-0.3-0.84v-14.05c0-0.36,0.1-0.64,0.3-0.84
			c0.2-0.2,0.48-0.3,0.83-0.3c0.36,0,0.64,0.1,0.84,0.3c0.2,0.2,0.3,0.48,0.3,0.84v14.05c0,0.36-0.1,0.64-0.3,0.84
			C736.25,124.74,735.97,124.84,735.61,124.84z M735.44,114.79c0.06-1.23,0.38-2.34,0.97-3.31c0.59-0.97,1.35-1.74,2.3-2.3
			c0.94-0.56,1.99-0.84,3.15-0.84c0.92,0,1.62,0.13,2.12,0.39c0.5,0.26,0.69,0.64,0.57,1.13c-0.08,0.3-0.21,0.5-0.4,0.6
			c-0.19,0.1-0.42,0.14-0.69,0.12c-0.27-0.02-0.57-0.04-0.91-0.06c-1.11-0.1-2.1,0.01-2.97,0.34s-1.55,0.83-2.06,1.51
			c-0.51,0.68-0.76,1.48-0.76,2.42H735.44z"/>
		<path class="st5" d="M766.76,124.84c-0.36,0-0.64-0.1-0.83-0.3c-0.2-0.2-0.3-0.48-0.3-0.84v-14.05c0-0.36,0.1-0.64,0.3-0.84
			c0.2-0.2,0.48-0.3,0.83-0.3c0.36,0,0.64,0.1,0.84,0.3c0.2,0.2,0.3,0.48,0.3,0.84v14.05c0,0.36-0.1,0.64-0.3,0.84
			C767.4,124.74,767.12,124.84,766.76,124.84z M766.58,114.79c0.06-1.23,0.38-2.34,0.97-3.31c0.59-0.97,1.35-1.74,2.3-2.3
			c0.94-0.56,1.99-0.84,3.15-0.84c0.92,0,1.62,0.13,2.12,0.39c0.5,0.26,0.69,0.64,0.57,1.13c-0.08,0.3-0.21,0.5-0.4,0.6
			c-0.19,0.1-0.42,0.14-0.69,0.12c-0.27-0.02-0.57-0.04-0.91-0.06c-1.11-0.1-2.1,0.01-2.97,0.34s-1.55,0.83-2.06,1.51
			c-0.51,0.68-0.76,1.48-0.76,2.42H766.58z"/>
		<path class="st5" d="M786.69,124.99c-1.61,0-3.04-0.35-4.28-1.06c-1.24-0.71-2.22-1.69-2.92-2.94s-1.06-2.69-1.06-4.3
			c0-1.63,0.33-3.07,1-4.31c0.67-1.24,1.59-2.22,2.76-2.94c1.17-0.72,2.53-1.07,4.06-1.07c1.51,0,2.83,0.34,3.95,1.03
			c1.12,0.69,1.99,1.64,2.61,2.85c0.62,1.21,0.92,2.6,0.92,4.15c0,0.32-0.1,0.57-0.3,0.76c-0.2,0.19-0.46,0.28-0.78,0.28h-12.68
			v-1.91h12.92l-1.28,0.92c0.02-1.15-0.19-2.19-0.63-3.1c-0.44-0.91-1.06-1.63-1.87-2.15c-0.8-0.52-1.76-0.78-2.88-0.78
			c-1.13,0-2.13,0.27-2.98,0.81c-0.85,0.54-1.52,1.28-1.98,2.22c-0.47,0.94-0.7,2.02-0.7,3.24c0,1.21,0.26,2.29,0.79,3.22
			c0.53,0.94,1.25,1.67,2.16,2.21s1.97,0.81,3.16,0.81c0.72,0,1.44-0.12,2.16-0.37c0.73-0.25,1.31-0.56,1.75-0.94
			c0.22-0.18,0.47-0.27,0.75-0.28c0.28-0.01,0.52,0.06,0.72,0.22c0.26,0.24,0.39,0.5,0.4,0.78c0.01,0.28-0.1,0.52-0.34,0.72
			c-0.66,0.56-1.49,1.02-2.51,1.39C788.6,124.81,787.62,124.99,786.69,124.99z"/>
		<path class="st5" d="M803.31,124.99c-1.17,0-2.34-0.2-3.49-0.6s-2.09-0.99-2.8-1.79c-0.22-0.24-0.31-0.51-0.27-0.81
			c0.04-0.3,0.19-0.56,0.45-0.78c0.28-0.2,0.57-0.28,0.87-0.24c0.3,0.04,0.55,0.17,0.75,0.39c0.48,0.56,1.11,0.98,1.89,1.28
			c0.79,0.3,1.66,0.45,2.61,0.45c1.47,0,2.54-0.25,3.19-0.76c0.66-0.51,0.99-1.12,1.01-1.83c0-0.72-0.34-1.31-1.01-1.77
			s-1.79-0.83-3.34-1.09c-2.01-0.32-3.48-0.88-4.42-1.67c-0.93-0.8-1.4-1.74-1.4-2.83c0-1.01,0.27-1.86,0.81-2.54
			c0.54-0.68,1.25-1.18,2.15-1.52c0.89-0.34,1.88-0.51,2.95-0.51c1.33,0,2.48,0.23,3.45,0.69c0.96,0.46,1.75,1.07,2.34,1.85
			c0.2,0.26,0.28,0.53,0.24,0.81c-0.04,0.28-0.2,0.51-0.48,0.69c-0.24,0.14-0.51,0.18-0.82,0.13c-0.31-0.05-0.57-0.19-0.79-0.43
			c-0.5-0.58-1.07-1-1.73-1.27s-1.41-0.4-2.27-0.4c-1.09,0-1.97,0.22-2.63,0.67c-0.66,0.45-0.98,1.01-0.98,1.69
			c0,0.46,0.12,0.86,0.37,1.19c0.25,0.34,0.68,0.64,1.28,0.9c0.61,0.26,1.46,0.48,2.55,0.66c1.49,0.24,2.67,0.59,3.54,1.06
			c0.87,0.47,1.48,1.01,1.85,1.64s0.55,1.31,0.55,2.04c0,0.94-0.27,1.76-0.82,2.46s-1.3,1.26-2.27,1.66
			C805.67,124.79,804.56,124.99,803.31,124.99z"/>
		<path class="st5" d="M821.09,124.99c-1.61,0-3.04-0.35-4.28-1.06c-1.24-0.71-2.22-1.69-2.92-2.94s-1.06-2.69-1.06-4.3
			c0-1.63,0.33-3.07,1-4.31c0.67-1.24,1.59-2.22,2.76-2.94c1.17-0.72,2.53-1.07,4.06-1.07c1.51,0,2.83,0.34,3.95,1.03
			c1.12,0.69,1.99,1.64,2.61,2.85c0.62,1.21,0.92,2.6,0.92,4.15c0,0.32-0.1,0.57-0.3,0.76c-0.2,0.19-0.46,0.28-0.78,0.28h-12.68
			v-1.91h12.92l-1.28,0.92c0.02-1.15-0.19-2.19-0.63-3.1c-0.44-0.91-1.06-1.63-1.87-2.15c-0.8-0.52-1.76-0.78-2.88-0.78
			c-1.13,0-2.13,0.27-2.98,0.81c-0.85,0.54-1.52,1.28-1.98,2.22c-0.47,0.94-0.7,2.02-0.7,3.24c0,1.21,0.26,2.29,0.79,3.22
			c0.53,0.94,1.25,1.67,2.16,2.21s1.97,0.81,3.16,0.81c0.72,0,1.44-0.12,2.16-0.37c0.73-0.25,1.31-0.56,1.75-0.94
			c0.22-0.18,0.47-0.27,0.75-0.28c0.28-0.01,0.52,0.06,0.72,0.22c0.26,0.24,0.39,0.5,0.4,0.78c0.01,0.28-0.1,0.52-0.34,0.72
			c-0.66,0.56-1.49,1.02-2.51,1.39C823,124.81,822.02,124.99,821.09,124.99z"/>
		<path class="st5" d="M839.19,124.99c-1.53,0-2.9-0.36-4.12-1.09c-1.21-0.73-2.17-1.72-2.88-2.97s-1.06-2.67-1.06-4.24
			c0-1.59,0.36-3.01,1.09-4.27c0.73-1.25,1.71-2.24,2.97-2.97s2.67-1.09,4.24-1.09s2.98,0.36,4.22,1.09
			c1.24,0.73,2.23,1.72,2.95,2.97c0.73,1.25,1.1,2.68,1.12,4.27l-0.92,0.72c0,1.43-0.33,2.72-1,3.86c-0.67,1.14-1.57,2.05-2.71,2.71
			S840.65,124.99,839.19,124.99z M839.43,122.9c1.15,0,2.18-0.27,3.09-0.81s1.62-1.28,2.15-2.22c0.53-0.94,0.79-2,0.79-3.18
			c0-1.19-0.26-2.26-0.79-3.19c-0.53-0.94-1.24-1.68-2.15-2.22s-1.93-0.82-3.09-0.82c-1.13,0-2.16,0.27-3.07,0.82
			c-0.92,0.55-1.64,1.29-2.18,2.22c-0.54,0.94-0.81,2-0.81,3.19c0,1.17,0.27,2.23,0.81,3.18c0.54,0.94,1.26,1.69,2.18,2.22
			C837.27,122.63,838.3,122.9,839.43,122.9z M846.56,124.84c-0.34,0-0.62-0.1-0.83-0.31c-0.22-0.21-0.33-0.48-0.33-0.82v-5.1
			l0.57-2.36l1.76,0.45v7.01c0,0.34-0.11,0.61-0.33,0.82C847.18,124.74,846.9,124.84,846.56,124.84z"/>
		<path class="st5" d="M853.34,124.84c-0.36,0-0.64-0.1-0.83-0.3c-0.2-0.2-0.3-0.48-0.3-0.84v-14.05c0-0.36,0.1-0.64,0.3-0.84
			c0.2-0.2,0.48-0.3,0.83-0.3c0.36,0,0.64,0.1,0.84,0.3c0.2,0.2,0.3,0.48,0.3,0.84v14.05c0,0.36-0.1,0.64-0.3,0.84
			C853.97,124.74,853.69,124.84,853.34,124.84z M853.16,114.79c0.06-1.23,0.38-2.34,0.97-3.31c0.59-0.97,1.35-1.74,2.3-2.3
			c0.94-0.56,1.99-0.84,3.15-0.84c0.92,0,1.62,0.13,2.12,0.39c0.5,0.26,0.69,0.64,0.57,1.13c-0.08,0.3-0.21,0.5-0.4,0.6
			c-0.19,0.1-0.42,0.14-0.69,0.12c-0.27-0.02-0.57-0.04-0.91-0.06c-1.11-0.1-2.1,0.01-2.97,0.34s-1.55,0.83-2.06,1.51
			c-0.51,0.68-0.76,1.48-0.76,2.42H853.16z"/>
		<path class="st5" d="M873.14,124.99c-1.57,0-2.97-0.36-4.19-1.09c-1.22-0.73-2.19-1.72-2.89-2.97s-1.06-2.67-1.06-4.24
			c0-1.59,0.34-3.01,1.01-4.27s1.6-2.24,2.77-2.97s2.53-1.09,4.06-1.09c1.21,0,2.33,0.24,3.36,0.72c1.02,0.48,1.92,1.19,2.7,2.15
			c0.22,0.24,0.3,0.49,0.24,0.76s-0.23,0.5-0.51,0.7c-0.22,0.16-0.46,0.21-0.73,0.16c-0.27-0.05-0.5-0.19-0.7-0.43
			c-1.15-1.31-2.61-1.97-4.36-1.97c-1.11,0-2.09,0.27-2.94,0.81c-0.85,0.54-1.5,1.27-1.97,2.21c-0.47,0.94-0.7,2.01-0.7,3.22
			c0,1.19,0.25,2.26,0.75,3.19c0.5,0.94,1.19,1.67,2.09,2.21c0.89,0.54,1.92,0.81,3.07,0.81c0.78,0,1.49-0.1,2.13-0.31
			c0.65-0.21,1.22-0.53,1.71-0.97c0.24-0.2,0.49-0.31,0.75-0.33c0.26-0.02,0.5,0.06,0.72,0.24c0.24,0.22,0.37,0.47,0.4,0.75
			c0.03,0.28-0.07,0.52-0.28,0.72C877.12,124.32,875.31,124.99,873.14,124.99z"/>
		<path class="st5" d="M884.81,118.19c-0.36,0-0.64-0.11-0.85-0.33c-0.21-0.22-0.31-0.5-0.31-0.84V102.7c0-0.36,0.1-0.64,0.31-0.85
			c0.21-0.21,0.49-0.31,0.85-0.31c0.34,0,0.61,0.1,0.82,0.31c0.21,0.21,0.31,0.49,0.31,0.85v14.32c0,0.34-0.1,0.62-0.31,0.84
			C885.42,118.08,885.15,118.19,884.81,118.19z M884.81,124.84c-0.36,0-0.64-0.1-0.85-0.31c-0.21-0.21-0.31-0.48-0.31-0.82v-14.02
			c0-0.36,0.1-0.64,0.31-0.85c0.21-0.21,0.49-0.31,0.85-0.31c0.34,0,0.61,0.1,0.82,0.31c0.21,0.21,0.31,0.49,0.31,0.85v14.02
			c0,0.34-0.1,0.61-0.31,0.82C885.42,124.74,885.15,124.84,884.81,124.84z M897.64,124.84c-0.34,0-0.62-0.11-0.83-0.33
			c-0.22-0.22-0.33-0.49-0.33-0.81v-7.76c0-1.23-0.23-2.25-0.7-3.04c-0.47-0.8-1.1-1.39-1.91-1.79c-0.81-0.4-1.72-0.6-2.73-0.6
			c-0.97,0-1.85,0.19-2.64,0.57c-0.79,0.38-1.41,0.9-1.87,1.55c-0.46,0.66-0.69,1.4-0.69,2.24h-1.64c0.04-1.25,0.38-2.37,1.01-3.36
			c0.64-0.98,1.48-1.76,2.54-2.33c1.05-0.57,2.23-0.85,3.52-0.85c1.41,0,2.67,0.29,3.79,0.88c1.11,0.59,1.99,1.45,2.64,2.58
			s0.97,2.52,0.97,4.15v7.76c0,0.32-0.11,0.59-0.33,0.81C898.22,124.73,897.96,124.84,897.64,124.84z"/>
		<path class="st5" d="M911.24,124.99c-1.61,0-3.04-0.35-4.28-1.06c-1.24-0.71-2.22-1.69-2.92-2.94s-1.06-2.69-1.06-4.3
			c0-1.63,0.33-3.07,1-4.31c0.67-1.24,1.59-2.22,2.76-2.94c1.17-0.72,2.53-1.07,4.06-1.07c1.51,0,2.83,0.34,3.95,1.03
			c1.12,0.69,1.99,1.64,2.61,2.85c0.62,1.21,0.92,2.6,0.92,4.15c0,0.32-0.1,0.57-0.3,0.76c-0.2,0.19-0.46,0.28-0.78,0.28h-12.68
			v-1.91h12.92l-1.28,0.92c0.02-1.15-0.19-2.19-0.63-3.1c-0.44-0.91-1.06-1.63-1.87-2.15c-0.8-0.52-1.76-0.78-2.88-0.78
			c-1.13,0-2.13,0.27-2.98,0.81c-0.85,0.54-1.52,1.28-1.98,2.22c-0.47,0.94-0.7,2.02-0.7,3.24c0,1.21,0.26,2.29,0.79,3.22
			c0.53,0.94,1.25,1.67,2.16,2.21s1.97,0.81,3.16,0.81c0.72,0,1.44-0.12,2.16-0.37c0.73-0.25,1.31-0.56,1.75-0.94
			c0.22-0.18,0.47-0.27,0.75-0.28c0.28-0.01,0.52,0.06,0.72,0.22c0.26,0.24,0.39,0.5,0.4,0.78c0.01,0.28-0.1,0.52-0.34,0.72
			c-0.66,0.56-1.49,1.02-2.51,1.39C913.15,124.81,912.18,124.99,911.24,124.99z"/>
		<path class="st5" d="M923.29,124.84c-0.36,0-0.64-0.1-0.83-0.3c-0.2-0.2-0.3-0.48-0.3-0.84v-14.05c0-0.36,0.1-0.64,0.3-0.84
			c0.2-0.2,0.48-0.3,0.83-0.3c0.36,0,0.64,0.1,0.84,0.3c0.2,0.2,0.3,0.48,0.3,0.84v14.05c0,0.36-0.1,0.64-0.3,0.84
			C923.93,124.74,923.65,124.84,923.29,124.84z M923.11,114.79c0.06-1.23,0.38-2.34,0.97-3.31c0.59-0.97,1.35-1.74,2.3-2.3
			c0.94-0.56,1.99-0.84,3.15-0.84c0.92,0,1.62,0.13,2.12,0.39c0.5,0.26,0.69,0.64,0.57,1.13c-0.08,0.3-0.21,0.5-0.4,0.6
			c-0.19,0.1-0.42,0.14-0.69,0.12c-0.27-0.02-0.57-0.04-0.91-0.06c-1.11-0.1-2.1,0.01-2.97,0.34s-1.55,0.83-2.06,1.51
			c-0.51,0.68-0.76,1.48-0.76,2.42H923.11z"/>
		<path class="st2" d="M213.03,259.74c-0.57,0-1.05-0.19-1.42-0.56c-0.38-0.37-0.56-0.85-0.56-1.42v-47.7c0-0.62,0.19-1.1,0.56-1.46
			c0.37-0.35,0.85-0.53,1.42-0.53h11.91c3.79,0,7.27,0.63,10.42,1.89c3.15,1.26,5.89,3.04,8.2,5.36c2.32,2.31,4.1,5.04,5.36,8.17
			c1.26,3.13,1.89,6.59,1.89,10.39c0,3.79-0.63,7.27-1.89,10.42c-1.26,3.15-3.04,5.89-5.36,8.2s-5.05,4.1-8.2,5.36
			c-3.15,1.26-6.63,1.89-10.42,1.89H213.03z M215.01,256.17h9.92c4.28,0,8.06-0.97,11.34-2.91c3.29-1.94,5.86-4.59,7.74-7.94
			c1.87-3.35,2.81-7.17,2.81-11.44c0-4.28-0.94-8.08-2.81-11.41c-1.88-3.33-4.45-5.96-7.74-7.9c-3.29-1.94-7.07-2.91-11.34-2.91
			h-9.92V256.17z"/>
		<path class="st2" d="M277.26,260.14c-3.53,0-6.69-0.8-9.49-2.41c-2.8-1.61-5.01-3.81-6.62-6.62c-1.61-2.8-2.41-5.94-2.41-9.43
			c0-3.53,0.8-6.69,2.41-9.49c1.61-2.8,3.81-5,6.62-6.62c2.8-1.61,5.96-2.41,9.49-2.41c3.53,0,6.68,0.81,9.46,2.41
			c2.78,1.61,4.97,3.81,6.58,6.62c1.61,2.8,2.41,5.96,2.41,9.49l-1.65,2.65c0,3-0.74,5.69-2.22,8.07c-1.48,2.38-3.47,4.27-5.99,5.66
			C283.35,259.44,280.48,260.14,277.26,260.14z M277.26,256.43c2.78,0,5.26-0.65,7.44-1.95c2.18-1.3,3.9-3.06,5.16-5.29
			c1.26-2.23,1.89-4.73,1.89-7.51c0-2.82-0.63-5.35-1.89-7.57c-1.26-2.23-2.98-3.99-5.16-5.29c-2.18-1.3-4.66-1.95-7.44-1.95
			c-2.73,0-5.2,0.65-7.41,1.95c-2.21,1.3-3.95,3.07-5.23,5.29c-1.28,2.23-1.92,4.75-1.92,7.57c0,2.78,0.64,5.28,1.92,7.51
			c1.28,2.23,3.02,3.99,5.23,5.29C272.06,255.78,274.53,256.43,277.26,256.43z M293.73,259.74c-0.57,0-1.05-0.19-1.42-0.56
			c-0.38-0.37-0.56-0.85-0.56-1.42v-12.11l1.26-3.97h2.71v16.08c0,0.57-0.18,1.05-0.53,1.42
			C294.84,259.55,294.35,259.74,293.73,259.74z"/>
		<path class="st2" d="M307.63,259.74c-0.57,0-1.05-0.19-1.42-0.56c-0.38-0.37-0.56-0.85-0.56-1.42v-32.22
			c0-0.62,0.19-1.1,0.56-1.46c0.37-0.35,0.85-0.53,1.42-0.53c0.62,0,1.1,0.18,1.46,0.53c0.35,0.35,0.53,0.84,0.53,1.46v32.22
			c0,0.57-0.18,1.05-0.53,1.42C308.73,259.55,308.24,259.74,307.63,259.74z M336.93,259.74c-0.57,0-1.05-0.19-1.42-0.56
			c-0.38-0.37-0.56-0.85-0.56-1.42v-17.79c0-2.91-0.56-5.31-1.69-7.21c-1.12-1.9-2.65-3.32-4.56-4.27
			c-1.92-0.95-4.09-1.42-6.52-1.42c-2.38,0-4.52,0.45-6.42,1.36c-1.9,0.9-3.4,2.15-4.5,3.74c-1.1,1.59-1.65,3.37-1.65,5.36h-3.31
			c0.18-2.73,0.99-5.19,2.45-7.38c1.46-2.18,3.35-3.9,5.69-5.16c2.34-1.26,4.92-1.89,7.74-1.89c3.18,0,6.03,0.65,8.57,1.95
			c2.54,1.3,4.53,3.2,5.99,5.69c1.46,2.49,2.18,5.57,2.18,9.23v17.79c0,0.57-0.19,1.05-0.56,1.42
			C337.98,259.55,337.5,259.74,336.93,259.74z"/>
		<path class="st2" d="M353.4,215.95c-0.84,0-1.55-0.3-2.15-0.89c-0.6-0.6-0.89-1.33-0.89-2.22c0-1.01,0.32-1.77,0.96-2.28
			c0.64-0.51,1.36-0.76,2.15-0.76c0.75,0,1.44,0.25,2.08,0.76c0.64,0.51,0.96,1.27,0.96,2.28c0,0.88-0.3,1.62-0.89,2.22
			C355.02,215.65,354.28,215.95,353.4,215.95z M353.47,259.74c-0.57,0-1.05-0.19-1.42-0.56c-0.38-0.37-0.56-0.85-0.56-1.42v-32.22
			c0-0.62,0.19-1.1,0.56-1.46c0.37-0.35,0.85-0.53,1.42-0.53c0.62,0,1.1,0.18,1.46,0.53c0.35,0.35,0.53,0.84,0.53,1.46v32.22
			c0,0.57-0.18,1.05-0.53,1.42C354.57,259.55,354.08,259.74,353.47,259.74z"/>
		<path class="st2" d="M384.69,260.07c-3.48,0-6.58-0.78-9.29-2.35c-2.71-1.56-4.84-3.74-6.38-6.52c-1.54-2.78-2.32-5.95-2.32-9.53
			c0-3.62,0.73-6.8,2.18-9.56c1.46-2.76,3.46-4.93,6.02-6.52c2.56-1.59,5.49-2.38,8.8-2.38c3.26,0,6.15,0.76,8.67,2.28
			s4.48,3.62,5.89,6.28c1.41,2.67,2.12,5.74,2.12,9.23c0,0.57-0.18,1.03-0.53,1.36c-0.35,0.33-0.82,0.5-1.39,0.5h-29.11v-3.44h30.17
			l-2.91,2.18c0.09-2.87-0.4-5.4-1.46-7.61c-1.06-2.21-2.57-3.94-4.53-5.19c-1.96-1.26-4.27-1.89-6.91-1.89
			c-2.51,0-4.75,0.63-6.71,1.89c-1.96,1.26-3.51,2.99-4.63,5.19c-1.12,2.21-1.69,4.76-1.69,7.67c0,2.87,0.6,5.4,1.79,7.61
			c1.19,2.21,2.84,3.94,4.96,5.19c2.12,1.26,4.54,1.89,7.28,1.89c1.72,0,3.45-0.3,5.19-0.89c1.74-0.6,3.12-1.38,4.13-2.35
			c0.35-0.35,0.78-0.54,1.29-0.56c0.51-0.02,0.94,0.12,1.29,0.43c0.48,0.4,0.74,0.84,0.76,1.32c0.02,0.49-0.19,0.93-0.63,1.32
			c-1.41,1.28-3.25,2.34-5.52,3.18C388.94,259.65,386.76,260.07,384.69,260.07z"/>
		<path class="st2" d="M416.25,259.74c-1.68,0-3.17-0.46-4.47-1.39c-1.3-0.93-2.32-2.2-3.04-3.84c-0.73-1.63-1.09-3.53-1.09-5.69
			v-38.77c0-0.62,0.19-1.1,0.56-1.46c0.37-0.35,0.85-0.53,1.42-0.53c0.62,0,1.1,0.18,1.46,0.53c0.35,0.35,0.53,0.84,0.53,1.46v38.77
			c0,2.03,0.43,3.69,1.29,4.99c0.86,1.3,1.97,1.95,3.34,1.95h1.65c0.48,0,0.88,0.18,1.19,0.53c0.31,0.35,0.46,0.84,0.46,1.46
			c0,0.57-0.18,1.05-0.53,1.42c-0.35,0.38-0.84,0.56-1.46,0.56H416.25z"/>
		<path class="st2" d="M434.11,259.74c-1.68,0-3.17-0.46-4.47-1.39c-1.3-0.93-2.32-2.2-3.04-3.84c-0.73-1.63-1.09-3.53-1.09-5.69
			v-38.77c0-0.62,0.19-1.1,0.56-1.46c0.37-0.35,0.85-0.53,1.42-0.53c0.62,0,1.1,0.18,1.46,0.53c0.35,0.35,0.53,0.84,0.53,1.46v38.77
			c0,2.03,0.43,3.69,1.29,4.99c0.86,1.3,1.97,1.95,3.34,1.95h1.65c0.48,0,0.88,0.18,1.19,0.53c0.31,0.35,0.46,0.84,0.46,1.46
			c0,0.57-0.18,1.05-0.53,1.42c-0.35,0.38-0.84,0.56-1.46,0.56H434.11z"/>
		<path class="st2" d="M461.23,260.14c-3.53,0-6.69-0.8-9.49-2.41c-2.8-1.61-5.01-3.81-6.62-6.62c-1.61-2.8-2.41-5.94-2.41-9.43
			c0-3.53,0.8-6.69,2.41-9.49c1.61-2.8,3.81-5,6.62-6.62c2.8-1.61,5.96-2.41,9.49-2.41c3.53,0,6.68,0.81,9.46,2.41
			c2.78,1.61,4.97,3.81,6.58,6.62c1.61,2.8,2.41,5.96,2.41,9.49l-1.65,2.65c0,3-0.74,5.69-2.22,8.07c-1.48,2.38-3.47,4.27-5.99,5.66
			C467.31,259.44,464.45,260.14,461.23,260.14z M461.23,256.43c2.78,0,5.26-0.65,7.44-1.95c2.18-1.3,3.9-3.06,5.16-5.29
			c1.26-2.23,1.89-4.73,1.89-7.51c0-2.82-0.63-5.35-1.89-7.57c-1.26-2.23-2.98-3.99-5.16-5.29c-2.18-1.3-4.66-1.95-7.44-1.95
			c-2.73,0-5.2,0.65-7.41,1.95c-2.21,1.3-3.95,3.07-5.23,5.29c-1.28,2.23-1.92,4.75-1.92,7.57c0,2.78,0.64,5.28,1.92,7.51
			c1.28,2.23,3.02,3.99,5.23,5.29C456.02,255.78,458.49,256.43,461.23,256.43z M477.7,259.74c-0.57,0-1.05-0.19-1.42-0.56
			c-0.38-0.37-0.56-0.85-0.56-1.42v-12.11l1.26-3.97h2.71v16.08c0,0.57-0.18,1.05-0.53,1.42
			C478.8,259.55,478.32,259.74,477.7,259.74z"/>
		<path class="st2" d="M525.13,260.4c-2.78,0-5.33-0.39-7.64-1.16s-4.31-1.87-5.99-3.31c-1.68-1.43-3-3.12-3.97-5.06
			c-0.26-0.53-0.28-1.04-0.03-1.52c0.24-0.48,0.65-0.82,1.22-0.99c0.48-0.18,0.97-0.15,1.46,0.07c0.48,0.22,0.86,0.57,1.12,1.06
			c0.79,1.41,1.84,2.65,3.14,3.7c1.3,1.06,2.84,1.86,4.63,2.41c1.79,0.55,3.8,0.83,6.05,0.83c2.51,0,4.69-0.42,6.52-1.26
			c1.83-0.84,3.24-2.07,4.23-3.7c0.99-1.63,1.49-3.62,1.49-5.95c0-2.91-1.05-5.37-3.14-7.38c-2.1-2.01-5.28-3.3-9.56-3.87
			c-4.94-0.7-8.8-2.3-11.58-4.8c-2.78-2.49-4.17-5.52-4.17-9.1c0-2.6,0.65-4.87,1.95-6.81c1.3-1.94,3.13-3.45,5.49-4.53
			c2.36-1.08,5.08-1.62,8.17-1.62c2.29,0,4.41,0.38,6.35,1.12c1.94,0.75,3.64,1.73,5.09,2.94c1.46,1.21,2.58,2.48,3.37,3.8
			c0.31,0.49,0.39,1,0.23,1.55c-0.15,0.55-0.52,0.94-1.09,1.16c-0.49,0.18-0.97,0.19-1.46,0.03c-0.49-0.15-0.88-0.45-1.19-0.89
			c-0.62-0.93-1.41-1.83-2.38-2.71c-0.97-0.88-2.18-1.61-3.64-2.18c-1.46-0.57-3.22-0.86-5.29-0.86c-3.62,0-6.46,0.82-8.53,2.45
			c-2.07,1.63-3.11,3.95-3.11,6.95c0,1.59,0.43,3.03,1.29,4.33c0.86,1.3,2.22,2.41,4.07,3.34c1.85,0.93,4.21,1.63,7.08,2.12
			c5.69,0.97,9.78,2.72,12.27,5.26c2.49,2.54,3.74,5.77,3.74,9.69c0,2.29-0.39,4.37-1.16,6.22c-0.77,1.85-1.88,3.42-3.31,4.7
			c-1.43,1.28-3.14,2.26-5.13,2.94S527.55,260.4,525.13,260.4z"/>
		<path class="st2" d="M568.13,260.14c-3.53,0-6.69-0.8-9.49-2.41c-2.8-1.61-5.01-3.81-6.62-6.62c-1.61-2.8-2.41-5.94-2.41-9.43
			c0-3.53,0.8-6.69,2.41-9.49c1.61-2.8,3.81-5,6.62-6.62c2.8-1.61,5.96-2.41,9.49-2.41c3.53,0,6.68,0.81,9.46,2.41
			c2.78,1.61,4.97,3.81,6.58,6.62c1.61,2.8,2.41,5.96,2.41,9.49l-1.65,2.65c0,3-0.74,5.69-2.22,8.07c-1.48,2.38-3.47,4.27-5.99,5.66
			C574.21,259.44,571.35,260.14,568.13,260.14z M568.13,256.43c2.78,0,5.26-0.65,7.44-1.95c2.18-1.3,3.9-3.06,5.16-5.29
			c1.26-2.23,1.89-4.73,1.89-7.51c0-2.82-0.63-5.35-1.89-7.57c-1.26-2.23-2.98-3.99-5.16-5.29c-2.18-1.3-4.66-1.95-7.44-1.95
			c-2.73,0-5.2,0.65-7.41,1.95c-2.21,1.3-3.95,3.07-5.23,5.29c-1.28,2.23-1.92,4.75-1.92,7.57c0,2.78,0.64,5.28,1.92,7.51
			c1.28,2.23,3.02,3.99,5.23,5.29C562.92,255.78,565.39,256.43,568.13,256.43z M584.6,259.74c-0.57,0-1.05-0.19-1.42-0.56
			c-0.38-0.37-0.56-0.85-0.56-1.42v-12.11l1.26-3.97h2.71v16.08c0,0.57-0.18,1.05-0.53,1.42
			C585.7,259.55,585.22,259.74,584.6,259.74z"/>
		<path class="st2" d="M598.49,259.74c-0.57,0-1.05-0.19-1.42-0.56c-0.38-0.37-0.56-0.85-0.56-1.42v-32.22
			c0-0.62,0.19-1.1,0.56-1.46c0.37-0.35,0.85-0.53,1.42-0.53c0.62,0,1.1,0.18,1.46,0.53c0.35,0.35,0.53,0.84,0.53,1.46v32.22
			c0,0.57-0.18,1.05-0.53,1.42C599.59,259.55,599.11,259.74,598.49,259.74z M622.5,259.74c-0.57,0-1.05-0.19-1.42-0.56
			c-0.38-0.37-0.56-0.85-0.56-1.42v-19.12c0-3.4-0.89-6.17-2.68-8.33c-1.79-2.16-4.11-3.24-6.98-3.24c-3.04,0-5.54,0.97-7.48,2.91
			c-1.94,1.94-2.91,4.46-2.91,7.54h-3.31c0.13-2.82,0.8-5.31,2.02-7.48c1.21-2.16,2.83-3.86,4.86-5.09c2.03-1.23,4.3-1.85,6.81-1.85
			c2.69,0,5.05,0.66,7.08,1.98c2.03,1.32,3.63,3.15,4.8,5.49c1.17,2.34,1.75,5.03,1.75,8.07v19.12c0,0.57-0.18,1.05-0.53,1.42
			C623.61,259.55,623.12,259.74,622.5,259.74z M646.32,259.74c-0.57,0-1.05-0.19-1.42-0.56c-0.38-0.37-0.56-0.85-0.56-1.42v-19.12
			c0-3.4-0.89-6.17-2.68-8.33c-1.79-2.16-4.11-3.24-6.98-3.24c-3.04,0-5.52,1-7.44,3.01c-1.92,2.01-2.83,4.71-2.75,8.1h-3.97
			c0.09-3.04,0.75-5.69,1.98-7.94c1.23-2.25,2.91-4,5.03-5.26c2.12-1.26,4.5-1.89,7.14-1.89c2.69,0,5.05,0.66,7.08,1.98
			c2.03,1.32,3.63,3.15,4.8,5.49c1.17,2.34,1.75,5.03,1.75,8.07v19.12c0,0.57-0.18,1.05-0.53,1.42
			C647.42,259.55,646.94,259.74,646.32,259.74z"/>
		<path class="st2" d="M662.79,215.95c-0.84,0-1.55-0.3-2.15-0.89c-0.6-0.6-0.89-1.33-0.89-2.22c0-1.01,0.32-1.77,0.96-2.28
			c0.64-0.51,1.36-0.76,2.15-0.76c0.75,0,1.44,0.25,2.08,0.76c0.64,0.51,0.96,1.27,0.96,2.28c0,0.88-0.3,1.62-0.89,2.22
			C664.41,215.65,663.67,215.95,662.79,215.95z M662.86,259.74c-0.57,0-1.05-0.19-1.42-0.56c-0.38-0.37-0.56-0.85-0.56-1.42v-32.22
			c0-0.62,0.19-1.1,0.56-1.46c0.37-0.35,0.85-0.53,1.42-0.53c0.62,0,1.1,0.18,1.46,0.53c0.35,0.35,0.53,0.84,0.53,1.46v32.22
			c0,0.57-0.18,1.05-0.53,1.42C663.96,259.55,663.47,259.74,662.86,259.74z"/>
		<path class="st2" d="M680.06,259.74c-0.57,0-1.05-0.19-1.42-0.56c-0.38-0.37-0.56-0.85-0.56-1.42v-32.22
			c0-0.62,0.19-1.1,0.56-1.46c0.37-0.35,0.85-0.53,1.42-0.53c0.62,0,1.1,0.18,1.46,0.53c0.35,0.35,0.53,0.84,0.53,1.46v32.22
			c0,0.57-0.18,1.05-0.53,1.42C681.16,259.55,680.67,259.74,680.06,259.74z M679.39,237.64c0.26-2.82,1.04-5.33,2.32-7.51
			c1.28-2.18,2.93-3.89,4.96-5.13c2.03-1.23,4.28-1.85,6.75-1.85c1.68,0,2.98,0.2,3.9,0.6c0.93,0.4,1.28,1.1,1.06,2.12
			c-0.13,0.66-0.44,1.06-0.93,1.19c-0.49,0.13-1.07,0.14-1.75,0.03c-0.68-0.11-1.45-0.17-2.28-0.17c-2.21,0-4.17,0.46-5.89,1.39
			c-1.72,0.93-3.07,2.19-4.04,3.8c-0.97,1.61-1.46,3.45-1.46,5.52H679.39z"/>
		<path class="st2" d="M723.58,260.14c-3.53,0-6.69-0.8-9.49-2.41c-2.8-1.61-5.01-3.81-6.62-6.62c-1.61-2.8-2.42-5.94-2.42-9.43
			c0-3.53,0.8-6.69,2.42-9.49c1.61-2.8,3.81-5,6.62-6.62c2.8-1.61,5.96-2.41,9.49-2.41s6.68,0.81,9.46,2.41
			c2.78,1.61,4.97,3.81,6.58,6.62c1.61,2.8,2.42,5.96,2.42,9.49l-1.65,2.65c0,3-0.74,5.69-2.22,8.07s-3.47,4.27-5.99,5.66
			C729.67,259.44,726.8,260.14,723.58,260.14z M723.58,256.43c2.78,0,5.26-0.65,7.44-1.95c2.18-1.3,3.9-3.06,5.16-5.29
			c1.26-2.23,1.88-4.73,1.88-7.51c0-2.82-0.63-5.35-1.88-7.57c-1.26-2.23-2.98-3.99-5.16-5.29c-2.18-1.3-4.66-1.95-7.44-1.95
			c-2.73,0-5.2,0.65-7.41,1.95c-2.21,1.3-3.95,3.07-5.23,5.29c-1.28,2.23-1.92,4.75-1.92,7.57c0,2.78,0.64,5.28,1.92,7.51
			c1.28,2.23,3.02,3.99,5.23,5.29C718.38,255.78,720.85,256.43,723.58,256.43z M740.06,259.74c-0.57,0-1.05-0.19-1.42-0.56
			c-0.38-0.37-0.56-0.85-0.56-1.42v-12.11l1.26-3.97h2.71v16.08c0,0.57-0.18,1.05-0.53,1.42
			C741.16,259.55,740.67,259.74,740.06,259.74z"/>
		<path class="st2" d="M773.99,259.74c-0.57,0-1.05-0.19-1.42-0.56c-0.38-0.37-0.56-0.85-0.56-1.42v-47.7
			c0-0.57,0.19-1.05,0.56-1.42c0.37-0.37,0.85-0.56,1.42-0.56c0.88,0,1.48,0.33,1.79,0.99l23.42,46.24h-2.32l23.09-46.24
			c0.4-0.66,0.99-0.99,1.79-0.99c0.57,0,1.04,0.19,1.39,0.56c0.35,0.38,0.53,0.85,0.53,1.42v47.7c0,0.57-0.18,1.05-0.53,1.42
			c-0.35,0.38-0.82,0.56-1.39,0.56s-1.06-0.19-1.46-0.56c-0.4-0.37-0.6-0.85-0.6-1.42v-42.93l0.99,0.33l-21.1,43
			c-0.31,0.62-0.88,0.93-1.72,0.93c-0.79,0-1.41-0.42-1.85-1.26l-21.37-42.67l1.32-0.33v42.93c0,0.57-0.19,1.05-0.56,1.42
			C775.04,259.55,774.56,259.74,773.99,259.74z"/>
		<path class="st2" d="M852.78,260.14c-3.53,0-6.69-0.8-9.49-2.41c-2.8-1.61-5.01-3.81-6.62-6.62c-1.61-2.8-2.42-5.94-2.42-9.43
			c0-3.53,0.8-6.69,2.42-9.49c1.61-2.8,3.81-5,6.62-6.62c2.8-1.61,5.96-2.41,9.49-2.41c3.53,0,6.68,0.81,9.46,2.41
			c2.78,1.61,4.97,3.81,6.58,6.62c1.61,2.8,2.42,5.96,2.42,9.49l-1.65,2.65c0,3-0.74,5.69-2.22,8.07s-3.47,4.27-5.99,5.66
			S855.99,260.14,852.78,260.14z M852.78,256.43c2.78,0,5.26-0.65,7.44-1.95c2.18-1.3,3.9-3.06,5.16-5.29
			c1.26-2.23,1.88-4.73,1.88-7.51c0-2.82-0.63-5.35-1.88-7.57c-1.26-2.23-2.98-3.99-5.16-5.29c-2.18-1.3-4.66-1.95-7.44-1.95
			c-2.74,0-5.21,0.65-7.41,1.95c-2.21,1.3-3.95,3.07-5.23,5.29c-1.28,2.23-1.92,4.75-1.92,7.57c0,2.78,0.64,5.28,1.92,7.51
			c1.28,2.23,3.02,3.99,5.23,5.29C847.57,255.78,850.04,256.43,852.78,256.43z M869.25,259.74c-0.57,0-1.05-0.19-1.42-0.56
			c-0.38-0.37-0.56-0.85-0.56-1.42v-12.11l1.26-3.97h2.71v16.08c0,0.57-0.18,1.05-0.53,1.42
			C870.35,259.55,869.87,259.74,869.25,259.74z"/>
		<path class="st2" d="M897.69,260.14c-3.53,0-6.69-0.8-9.49-2.41c-2.8-1.61-5.01-3.81-6.62-6.62c-1.61-2.8-2.42-5.94-2.42-9.43
			c0-3.53,0.8-6.69,2.42-9.49c1.61-2.8,3.81-5,6.62-6.62c2.8-1.61,5.96-2.41,9.49-2.41c3.53,0,6.68,0.81,9.46,2.41
			c2.78,1.61,4.97,3.81,6.58,6.62c1.61,2.8,2.42,5.96,2.42,9.49l-1.65,2.65c0,3-0.74,5.69-2.22,8.07s-3.47,4.27-5.99,5.66
			S900.91,260.14,897.69,260.14z M897.69,256.43c2.78,0,5.26-0.65,7.44-1.95c2.18-1.3,3.9-3.06,5.16-5.29
			c1.26-2.23,1.88-4.73,1.88-7.51c0-2.82-0.63-5.35-1.88-7.57c-1.26-2.23-2.98-3.99-5.16-5.29c-2.18-1.3-4.66-1.95-7.44-1.95
			c-2.74,0-5.21,0.65-7.41,1.95c-2.21,1.3-3.95,3.07-5.23,5.29c-1.28,2.23-1.92,4.75-1.92,7.57c0,2.78,0.64,5.28,1.92,7.51
			c1.28,2.23,3.02,3.99,5.23,5.29C892.49,255.78,894.96,256.43,897.69,256.43z M914.16,259.74c-0.57,0-1.05-0.19-1.42-0.56
			c-0.38-0.37-0.56-0.85-0.56-1.42v-12.11l1.26-3.97h2.71v16.08c0,0.57-0.18,1.05-0.53,1.42
			C915.27,259.55,914.78,259.74,914.16,259.74z"/>
		<path class="st2" d="M928.06,259.74c-0.57,0-1.05-0.19-1.42-0.56c-0.38-0.37-0.56-0.85-0.56-1.42v-32.22
			c0-0.62,0.19-1.1,0.56-1.46c0.38-0.35,0.85-0.53,1.42-0.53c0.62,0,1.1,0.18,1.46,0.53c0.35,0.35,0.53,0.84,0.53,1.46v32.22
			c0,0.57-0.18,1.05-0.53,1.42C929.16,259.55,928.67,259.74,928.06,259.74z M952.07,259.74c-0.57,0-1.05-0.19-1.42-0.56
			c-0.38-0.37-0.56-0.85-0.56-1.42v-19.12c0-3.4-0.89-6.17-2.68-8.33c-1.79-2.16-4.11-3.24-6.98-3.24c-3.04,0-5.54,0.97-7.47,2.91
			c-1.94,1.94-2.91,4.46-2.91,7.54h-3.31c0.13-2.82,0.8-5.31,2.02-7.48c1.21-2.16,2.83-3.86,4.86-5.09c2.03-1.23,4.3-1.85,6.81-1.85
			c2.69,0,5.05,0.66,7.08,1.98c2.03,1.32,3.63,3.15,4.8,5.49c1.17,2.34,1.75,5.03,1.75,8.07v19.12c0,0.57-0.18,1.05-0.53,1.42
			C953.17,259.55,952.69,259.74,952.07,259.74z M975.88,259.74c-0.57,0-1.05-0.19-1.42-0.56c-0.38-0.37-0.56-0.85-0.56-1.42v-19.12
			c0-3.4-0.89-6.17-2.68-8.33c-1.79-2.16-4.11-3.24-6.98-3.24c-3.04,0-5.52,1-7.44,3.01c-1.92,2.01-2.83,4.71-2.75,8.1h-3.97
			c0.09-3.04,0.75-5.69,1.98-7.94c1.23-2.25,2.91-4,5.03-5.26c2.12-1.26,4.5-1.89,7.14-1.89c2.69,0,5.05,0.66,7.08,1.98
			c2.03,1.32,3.63,3.15,4.8,5.49c1.17,2.34,1.75,5.03,1.75,8.07v19.12c0,0.57-0.18,1.05-0.53,1.42
			C976.99,259.55,976.5,259.74,975.88,259.74z"/>
		<path class="st2" d="M1005.65,260.14c-3.53,0-6.69-0.8-9.49-2.41c-2.8-1.61-5.01-3.81-6.62-6.62c-1.61-2.8-2.42-5.94-2.42-9.43
			c0-3.53,0.8-6.69,2.42-9.49c1.61-2.8,3.81-5,6.62-6.62c2.8-1.61,5.96-2.41,9.49-2.41c3.53,0,6.68,0.81,9.46,2.41
			c2.78,1.61,4.97,3.81,6.58,6.62c1.61,2.8,2.42,5.96,2.42,9.49l-1.65,2.65c0,3-0.74,5.69-2.22,8.07s-3.47,4.27-5.99,5.66
			S1008.87,260.14,1005.65,260.14z M1005.65,256.43c2.78,0,5.26-0.65,7.44-1.95c2.18-1.3,3.9-3.06,5.16-5.29
			c1.26-2.23,1.88-4.73,1.88-7.51c0-2.82-0.63-5.35-1.88-7.57c-1.26-2.23-2.98-3.99-5.16-5.29c-2.18-1.3-4.66-1.95-7.44-1.95
			c-2.74,0-5.21,0.65-7.41,1.95c-2.21,1.3-3.95,3.07-5.23,5.29c-1.28,2.23-1.92,4.75-1.92,7.57c0,2.78,0.64,5.28,1.92,7.51
			c1.28,2.23,3.02,3.99,5.23,5.29C1000.45,255.78,1002.92,256.43,1005.65,256.43z M1022.12,259.74c-0.57,0-1.05-0.19-1.42-0.56
			c-0.38-0.37-0.56-0.85-0.56-1.42v-12.11l1.26-3.97h2.71v16.08c0,0.57-0.18,1.05-0.53,1.42
			C1023.23,259.55,1022.74,259.74,1022.12,259.74z"/>
		<path class="st2" d="M1036.01,259.74c-0.57,0-1.05-0.19-1.42-0.56c-0.38-0.37-0.56-0.85-0.56-1.42v-32.22
			c0-0.62,0.19-1.1,0.56-1.46c0.38-0.35,0.85-0.53,1.42-0.53c0.62,0,1.1,0.18,1.46,0.53c0.35,0.35,0.53,0.84,0.53,1.46v32.22
			c0,0.57-0.18,1.05-0.53,1.42C1037.12,259.55,1036.63,259.74,1036.01,259.74z M1035.35,237.64c0.26-2.82,1.04-5.33,2.32-7.51
			s2.93-3.89,4.96-5.13c2.03-1.23,4.28-1.85,6.75-1.85c1.68,0,2.98,0.2,3.9,0.6c0.93,0.4,1.28,1.1,1.06,2.12
			c-0.13,0.66-0.44,1.06-0.93,1.19s-1.07,0.14-1.75,0.03c-0.68-0.11-1.44-0.17-2.28-0.17c-2.21,0-4.17,0.46-5.89,1.39
			c-1.72,0.93-3.07,2.19-4.04,3.8c-0.97,1.61-1.46,3.45-1.46,5.52H1035.35z"/>
		<path class="st2" d="M1066.24,215.95c-0.84,0-1.55-0.3-2.15-0.89c-0.59-0.6-0.89-1.33-0.89-2.22c0-1.01,0.32-1.77,0.96-2.28
			c0.64-0.51,1.36-0.76,2.15-0.76c0.75,0,1.44,0.25,2.08,0.76c0.64,0.51,0.96,1.27,0.96,2.28c0,0.88-0.3,1.62-0.89,2.22
			C1067.86,215.65,1067.13,215.95,1066.24,215.95z M1066.31,259.74c-0.57,0-1.05-0.19-1.42-0.56c-0.38-0.37-0.56-0.85-0.56-1.42
			v-32.22c0-0.62,0.19-1.1,0.56-1.46c0.37-0.35,0.85-0.53,1.42-0.53c0.62,0,1.1,0.18,1.46,0.53c0.35,0.35,0.53,0.84,0.53,1.46v32.22
			c0,0.57-0.18,1.05-0.53,1.42C1067.41,259.55,1066.93,259.74,1066.31,259.74z"/>
	</g>
	<line class="st6" x1="579.22" y1="352.73" x2="684.62" y2="352.73"/>
</g>
</svg>
